# xmcd
#
# Track frame offsets: 
#        150
#        17950
#        33239
#        47301
#        80789
#        97060
#        117322
#        150061
#        177336
#        196075
#        211910
#        260224
#
# Disc length: 3721 seconds
#
# Revision: 1
# Processed by: cddbd v1.5.2PL0 Copyright (c) Steve Scherf et al.
# Submitted via: ExactAudioCopy v1.0b1
#
DISCID=980e870c
DTITLE=Various Artist - Club Cocktail 97 CD1
DYEAR=1997
DGENRE=Trance, Euro House, House
TTITLE0=Nalin and Kane - Beachball
TTITLE1=Moonman - Don't Be Afraid
TTITLE2=Chicane - Offshore
TTITLE3=Future Breeze - Keep The Fire Burnin' (Nalin and Kane Mix)
TTITLE4=Armand Van Helen - Witch Doktor
TTITLE5=Celvin Rotane - Theme From Magnum (Future Breeze Mix)
TTITLE6=Lambda feat. Martha Wash - Hold On Tide
TTITLE7=Marc Et Claude - La
TTITLE8=Mel O'Ween - The King
TTITLE9=The Source feat. Candi Staton - You Got The Love
TTITLE10=The Blue Boy - Remember Me (Sure Is Pure 12" Edit)
TTITLE11=Patrick Lindsey - Jambanger
EXTD=
EXTT0=
EXTT1=
EXTT2=
EXTT3=
EXTT4=
EXTT5=
EXTT6=
EXTT7=
EXTT8=
EXTT9=
EXTT10=
EXTT11=
PLAYORDER=
